<?xml version="1.0" encoding="UTF-8" standalone="no"?>
<svg width="30px" height="30px" viewBox="0 0 30 30" version="1.1" xmlns="http://www.w3.org/2000/svg" xmlns:xlink="http://www.w3.org/1999/xlink">
    <!-- Generator: Sketch 39.1 (31720) - http://www.bohemiancoding.com/sketch -->
    <title>behance</title>
    <desc>Created with Sketch.</desc>
    <defs></defs>
    <g id="Speakers" stroke="none" stroke-width="1" fill="none" fill-rule="evenodd">
        <path d="M11.05,13.54375 L8.59375,13.54375 L8.59375,11.22 L10.8225,11.22 C13.17,11.22 12.88,13.54375 11.05,13.54375 L11.05,13.54375 Z M18.28625,14.86625 L21.56625,14.86625 C21.4225,12.7575 18.61625,12.60375 18.28625,14.86625 L18.28625,14.86625 Z M10.91125,15.36125 L8.59375,15.36125 L8.59375,17.795 L10.87375,17.795 C13.10125,17.79375 12.965,15.36125 10.91125,15.36125 L10.91125,15.36125 Z M30,15 C30,23.28375 23.28375,30 15,30 C6.71625,30 0,23.28375 0,15 C0,6.71625 6.71625,0 15,0 C23.28375,0 30,6.71625 30,15 L30,15 Z M13.30375,14.08375 C15.38875,13.0175 15.3125,9.1075 11.32,9.04875 L6.25,9.04875 L6.25,19.96125 L10.96375,19.96125 C15.91125,19.96125 15.8275,15.0025 13.30375,14.08375 L13.30375,14.08375 Z M17.5,10.12625 L22.5,10.12625 L22.5,9.0325 L17.5,9.0325 L17.5,10.12625 L17.5,10.12625 Z M23.67875,14.7425 C22.9975,10.36125 16.1125,10.10375 16.1125,15.8325 C16.1125,21.49 22.5875,20.605 23.54875,17.7825 L21.23875,17.7825 C20.4325,18.7175 18.10375,18.44625 18.23375,16.3025 L23.74625,16.3025 C23.7575,15.60875 23.735,15.11125 23.67875,14.7425 L23.67875,14.7425 Z" id="behance" fill="#0D41C2"></path>
    </g>
</svg>