<svg width="30" height="30" viewBox="0 0 30 30" xmlns="http://www.w3.org/2000/svg"><title>behance</title><path d="M11.05 13.544H8.594V11.22h2.229c2.347 0 2.057 2.324.227 2.324zm7.236 1.322h3.28c-.143-2.108-2.95-2.262-3.28 0zm-7.375.495H8.594v2.434h2.28c2.227-.001 2.091-2.434.037-2.434zM30 15c0 8.284-6.716 15-15 15-8.284 0-15-6.716-15-15C0 6.716 6.716 0 15 0c8.284 0 15 6.716 15 15zm-16.696-.916c2.085-1.066 2.008-4.976-1.984-5.035H6.25V19.96h4.714c4.947 0 4.864-4.958 2.34-5.877zm4.196-3.958h5V9.033h-5v1.093zm6.179 4.617c-.681-4.382-7.566-4.64-7.566 1.09 0 5.657 6.474 4.772 7.436 1.95h-2.31c-.806.934-3.135.663-3.005-1.48h5.512c.012-.694-.011-1.192-.067-1.56z" fill="#0D41C2" fill-rule="evenodd"/></svg>