<svg width="30" height="30" viewBox="0 0 30 30" xmlns="http://www.w3.org/2000/svg"><title>codepen</title><g fill="#0D41C2" fill-rule="evenodd"><path d="M7.339 13.65v2.663l1.99-1.332zM14.209 11.717v-3.71l-6.233 4.155 2.784 1.862zM22.034 12.162L15.8 8.006v3.711l3.45 2.307zM7.976 17.8l6.233 4.156v-3.71l-3.449-2.307zM15.8 18.245v3.711l6.234-4.155-2.785-1.862zM15.005 13.1L12.19 14.98l2.814 1.882 2.813-1.882z"/><path d="M24.261 17.802c0 .035-.002.07-.007.104l-.006.034c-.004.022-.008.045-.014.067-.003.013-.008.026-.012.038l-.02.059c-.006.013-.013.025-.018.038a.973.973 0 0 1-.027.053l-.023.037a.712.712 0 0 1-.1.125l-.032.032a.751.751 0 0 1-.046.037l-.035.028-.014.01-8.461 5.64a.795.795 0 0 1-.883 0l-8.461-5.64-.013-.01a.747.747 0 0 1-.081-.065c-.011-.01-.022-.02-.032-.032-.014-.013-.027-.028-.04-.042a.655.655 0 0 1-.06-.083.96.96 0 0 1-.05-.09c-.006-.013-.013-.025-.018-.038a.804.804 0 0 1-.02-.059c-.005-.012-.01-.025-.013-.038-.006-.022-.01-.045-.014-.067l-.006-.034a.784.784 0 0 1-.007-.104V12.16c0-.035.002-.07.007-.104.001-.012.004-.023.006-.035a.666.666 0 0 1 .026-.105.716.716 0 0 1 .15-.269c.012-.015.025-.03.039-.043.01-.01.02-.021.032-.031a.772.772 0 0 1 .08-.065l.014-.01 8.461-5.641a.795.795 0 0 1 .883 0l8.461 5.641.014.01.035.027.046.038.031.031a.68.68 0 0 1 .1.126l.024.037a.79.79 0 0 1 .027.052l.017.04c.008.018.014.038.02.057.005.013.01.026.013.039.006.022.01.044.014.066.002.012.005.023.006.035a.772.772 0 0 1 .007.104v5.64zM15.005.01C6.736.01.033 6.713.033 14.98c0 8.269 6.703 14.971 14.972 14.971 8.268 0 14.971-6.702 14.971-14.97C29.976 6.711 23.273.01 15.005.01z"/><path d="M22.67 16.313V13.65l-1.99 1.331z"/></g></svg>