<?xml version="1.0" encoding="UTF-8" standalone="no"?>
<svg width="30px" height="30px" viewBox="0 0 30 30" version="1.1" xmlns="http://www.w3.org/2000/svg" xmlns:xlink="http://www.w3.org/1999/xlink">
    <!-- Generator: Sketch 39.1 (31720) - http://www.bohemiancoding.com/sketch -->
    <title>dribbble</title>
    <desc>Created with Sketch.</desc>
    <defs></defs>
    <g id="Speakers" stroke="none" stroke-width="1" fill="none" fill-rule="evenodd">
        <path d="M14.31875,12.48125 C12.545,13.0025 10.43125,13.27125 7.985,13.28875 C8.49125,11.22125 9.8825,9.50125 11.73875,8.55875 C12.71,9.82875 13.56875,11.1375 14.31875,12.48125 L14.31875,12.48125 Z M15.525,14.89375 C15.37,14.54375 15.2075,14.195 15.03625,13.85 C13.00875,14.4875 10.585,14.81125 7.78125,14.815 L7.77125,15 C7.77125,16.755 8.40125,18.365 9.44625,19.61875 C11.02875,17.2425 13.06,15.66375 15.525,14.89375 L15.525,14.89375 Z M10.5625,20.695 C12.52375,22.22625 15.15125,22.68125 17.5925,21.74 C17.2775,19.88 16.78,18.065 16.105,16.3 C13.83125,16.9775 11.99875,18.4425 10.5625,20.695 L10.5625,20.695 Z M19.40625,9.2825 C18.185,8.34 16.66,7.77125 15,7.77125 C14.3875,7.77125 13.795,7.85625 13.2275,8.00125 C14.1825,9.28625 15.02875,10.60875 15.77125,11.96625 C17.31625,11.31125 18.52625,10.41625 19.40625,9.2825 L19.40625,9.2825 Z M30,15 C30,23.28375 23.28375,30 15,30 C6.71625,30 0,23.28375 0,15 C0,6.71625 6.71625,0 15,0 C23.28375,0 30,6.71625 30,15 L30,15 Z M23.75,15 C23.75,10.1675 19.83125,6.25 15,6.25 C10.16875,6.25 6.25,10.1675 6.25,15 C6.25,19.8325 10.16875,23.75 15,23.75 C19.83125,23.75 23.75,19.8325 23.75,15 L23.75,15 Z M16.47,13.31375 C16.66625,13.71875 16.85125,14.1275 17.02875,14.53875 C18.60375,14.2675 20.33,14.28375 22.2075,14.59125 C22.11625,12.97625 21.5,11.49875 20.515,10.3375 C19.50625,11.59375 18.1525,12.585 16.47,13.31375 L16.47,13.31375 Z M17.6125,15.97875 C18.22375,17.615 18.69375,19.2925 19.01125,21.0075 C20.65125,19.9075 21.8125,18.1525 22.1325,16.12125 C20.48625,15.83625 18.98,15.78625 17.6125,15.97875 L17.6125,15.97875 Z" id="dribbble" fill="#0D41C2"></path>
    </g>
</svg>