<svg width="30" height="30" viewBox="0 0 30 30" xmlns="http://www.w3.org/2000/svg"><title>dribbble</title><path d="M14.319 12.481c-1.774.521-3.888.79-6.334.808a7.248 7.248 0 0 1 3.754-4.73 32.64 32.64 0 0 1 2.58 3.922zm1.206 2.413a26.3 26.3 0 0 0-.489-1.044c-2.027.638-4.451.961-7.255.965l-.01.185c0 1.755.63 3.365 1.675 4.619 1.583-2.377 3.614-3.955 6.079-4.725zm-4.963 5.801a7.163 7.163 0 0 0 7.03 1.045 28.546 28.546 0 0 0-1.487-5.44c-2.274.677-4.106 2.142-5.543 4.395zm8.844-11.412A7.188 7.188 0 0 0 15 7.77c-.613 0-1.205.085-1.773.23a33.97 33.97 0 0 1 2.544 3.965c1.545-.655 2.755-1.55 3.635-2.683zM30 15c0 8.284-6.716 15-15 15-8.284 0-15-6.716-15-15C0 6.716 6.716 0 15 0c8.284 0 15 6.716 15 15zm-6.25 0a8.75 8.75 0 1 0-17.502.002A8.75 8.75 0 0 0 23.75 15zm-7.28-1.686c.196.405.381.813.559 1.225 1.575-.271 3.301-.255 5.178.052a7.185 7.185 0 0 0-1.692-4.253c-1.009 1.256-2.363 2.247-4.045 2.976zm1.143 2.665a29.92 29.92 0 0 1 1.398 5.029 7.246 7.246 0 0 0 3.122-4.887c-1.647-.285-3.153-.335-4.52-.142z" fill="#0D41C2" fill-rule="evenodd"/></svg>