<?xml version="1.0" encoding="UTF-8" standalone="no"?>
<svg width="31px" height="25px" viewBox="0 0 31 25" version="1.1" xmlns="http://www.w3.org/2000/svg" xmlns:xlink="http://www.w3.org/1999/xlink">
    <!-- Generator: Sketch 3.7.2 (28276) - http://www.bohemiancoding.com/sketch -->
    <title>twitter</title>
    <desc>Created with Sketch.</desc>
    <defs></defs>
    <g id="Page-1" stroke="none" stroke-width="1" fill="none" fill-rule="evenodd">
        <g id="mirror-desktop" transform="translate(-1355.000000, -247.000000)" fill="#FFFFFF">
            <path d="M1385.72289,249.974344 C1384.59212,250.475321 1383.37882,250.815078 1382.10402,250.966761 C1383.40567,250.187413 1384.40206,248.951259 1384.8743,247.48281 C1383.65331,248.204536 1382.30557,248.728602 1380.86953,249.012695 C1379.71958,247.786127 1378.08389,247.022139 1376.26963,247.022139 C1372.78901,247.022139 1369.96687,249.843842 1369.96687,253.32202 C1369.96687,253.815317 1370.02254,254.297121 1370.13007,254.757843 C1364.89282,254.494831 1360.2488,251.986031 1357.14061,248.173818 C1356.59729,249.102892 1356.2882,250.185456 1356.2882,251.341051 C1356.2882,253.52741 1357.40171,255.45653 1359.09116,256.585171 C1358.05828,256.550638 1357.08685,256.266546 1356.2364,255.794329 L1356.2364,255.873032 C1356.2364,258.925071 1358.40964,261.472269 1361.29127,262.051999 C1360.7633,262.194045 1360.20658,262.272748 1359.63062,262.272748 C1359.22364,262.272748 1358.83007,262.232443 1358.44418,262.155647 C1359.24664,264.660632 1361.57349,266.482239 1364.33037,266.532181 C1362.1744,268.221378 1359.45592,269.22529 1356.50326,269.22529 C1355.99453,269.22529 1355.49342,269.194571 1355.00005,269.138907 C1357.78956,270.929846 1361.10126,271.974062 1364.66059,271.974062 C1376.25437,271.974062 1382.59172,262.372582 1382.59172,254.045704 L1382.57058,253.229916 C1383.80884,252.346869 1384.88007,251.237402 1385.72289,249.974344 L1385.72289,249.974344 Z" id="twitter"></path>
        </g>
    </g>
</svg>