<svg width="31" height="25" viewBox="0 0 31 25" xmlns="http://www.w3.org/2000/svg"><title>twitter</title><path d="M30.723 2.974c-1.13.501-2.344.841-3.619.993a6.328 6.328 0 0 0 2.77-3.484 12.707 12.707 0 0 1-4.004 1.53 6.285 6.285 0 0 0-4.6-1.99 6.302 6.302 0 0 0-6.14 7.735A17.894 17.894 0 0 1 2.14 1.174a6.253 6.253 0 0 0-.852 3.167 6.298 6.298 0 0 0 2.803 5.244 6.304 6.304 0 0 1-2.855-.79v.078c0 3.052 2.174 5.6 5.055 6.179a6.385 6.385 0 0 1-1.66.22c-.407 0-.8-.04-1.187-.116a6.306 6.306 0 0 0 5.886 4.376 12.646 12.646 0 0 1-7.827 2.693c-.508 0-1.01-.03-1.503-.086a17.817 17.817 0 0 0 9.66 2.835c11.594 0 17.932-9.601 17.932-17.928l-.021-.816a12.584 12.584 0 0 0 3.152-3.256z" fill="#FFF" fill-rule="evenodd"/></svg>