<svg width="30" height="30" viewBox="0 0 30 30" xmlns="http://www.w3.org/2000/svg"><title>web</title><path d="M15 30c8.284 0 15-6.716 15-15 0-8.284-6.716-15-15-15C6.716 0 0 6.716 0 15c0 8.284 6.716 15 15 15zm1.125-10.436v-3.439h3.368a20.838 20.838 0 0 1-.513 3.689 27.29 27.29 0 0 0-2.855-.25zm2.202 2.432c-.562 1.497-1.304 2.81-2.202 3.888v-4.072c.75.031 1.484.091 2.202.184zm-2.202-8.121v-3.392a27.2 27.2 0 0 0 2.866-.252c.268 1.155.438 2.375.502 3.644h-3.368zm0-5.64v-4.12c.907 1.09 1.655 2.42 2.217 3.934-.722.094-1.462.154-2.217.185zm3.04-3.676a11.281 11.281 0 0 1 3.702 2.414c-.722.263-1.475.497-2.271.683a17.237 17.237 0 0 0-1.43-3.097zM11.02 19.814a20.735 20.735 0 0 1-.513-3.689h3.368v3.44a27.29 27.29 0 0 0-2.855.249zm2.855 1.998v4.072c-.898-1.079-1.64-2.391-2.202-3.888a25.318 25.318 0 0 1 2.202-.184zm-3.368-7.937a20.69 20.69 0 0 1 .502-3.644 27.2 27.2 0 0 0 2.866.252v3.392h-3.368zm1.152-5.826c.562-1.515 1.31-2.843 2.216-3.933v4.118a25.144 25.144 0 0 1-2.216-.185zm-2.256-.394c-.796-.186-1.549-.42-2.27-.683a11.293 11.293 0 0 1 3.701-2.414 17.391 17.391 0 0 0-1.43 3.097zm-.617 2.158a22.928 22.928 0 0 0-.554 4.062H3.807a11.166 11.166 0 0 1 1.82-5.083c.99.406 2.043.754 3.159 1.02zm.01 10.42c-1.112.265-2.16.61-3.147 1.012a11.163 11.163 0 0 1-1.842-5.12h4.426a22.89 22.89 0 0 0 .563 4.107zm.622 2.156a17.276 17.276 0 0 0 1.414 3.051 11.261 11.261 0 0 1-3.663-2.38c.715-.257 1.461-.489 2.249-.671zm11.164 0c.788.183 1.532.413 2.25.672a11.318 11.318 0 0 1-3.665 2.38c.55-.936 1.03-1.954 1.415-3.052zm.622-2.157a22.89 22.89 0 0 0 .564-4.107h4.426a11.177 11.177 0 0 1-1.843 5.12 21.633 21.633 0 0 0-3.147-1.013zm.564-6.357a23.032 23.032 0 0 0-.553-4.062 21.463 21.463 0 0 0 3.16-1.02 11.178 11.178 0 0 1 1.818 5.082h-4.425z" fill="#0D41C2" fill-rule="evenodd"/></svg>