<?xml version="1.0" encoding="UTF-8" standalone="no"?>
<svg width="30px" height="30px" viewBox="0 0 30 30" version="1.1" xmlns="http://www.w3.org/2000/svg" xmlns:xlink="http://www.w3.org/1999/xlink">
    <!-- Generator: Sketch 39.1 (31720) - http://www.bohemiancoding.com/sketch -->
    <title>web</title>
    <desc>Created with Sketch.</desc>
    <defs></defs>
    <g id="Speakers" stroke="none" stroke-width="1" fill="none" fill-rule="evenodd">
        <path d="M15,0 C6.71625,0 0,6.71625 0,15 C0,23.28375 6.71625,30 15,30 C23.28375,30 30,23.28375 30,15 C30,6.71625 23.28375,0 15,0 L15,0 L15,0 Z M16.25,20.07125 L16.25,16.25 L19.9925,16.25 C19.91875,17.67875 19.7275,19.05 19.4225,20.34875 C18.39375,20.19875 17.33,20.11375 16.25,20.07125 L16.25,20.07125 L16.25,20.07125 Z M18.69625,22.77375 C18.0725,24.43625 17.2475,25.895 16.25,27.09375 L16.25,22.56875 C17.0825,22.60375 17.89875,22.67 18.69625,22.77375 L18.69625,22.77375 L18.69625,22.77375 Z M16.25,13.75 L16.25,9.98125 C17.335,9.93875 18.40125,9.8525 19.435,9.70125 C19.7325,10.985 19.92125,12.34 19.9925,13.75 L16.25,13.75 L16.25,13.75 L16.25,13.75 Z M16.25,7.4825 L16.25,2.90625 C17.2575,4.1175 18.08875,5.59375 18.71375,7.27625 C17.91125,7.38125 17.08875,7.4475 16.25,7.4825 L16.25,7.4825 L16.25,7.4825 Z M19.62875,3.39875 C21.175,4.01875 22.57125,4.93375 23.74125,6.08125 C22.93875,6.37375 22.1025,6.63375 21.2175,6.84 C20.7875,5.6 20.24875,4.4525 19.62875,3.39875 L19.62875,3.39875 L19.62875,3.39875 Z M10.5775,20.34875 C10.2725,19.05 10.08,17.67875 10.0075,16.25 L13.75,16.25 L13.75,20.07125 C12.66875,20.11375 11.6075,20.19875 10.5775,20.34875 L10.5775,20.34875 L10.5775,20.34875 Z M13.75,22.56875 L13.75,27.09375 C12.7525,25.895 11.9275,24.43625 11.30375,22.77375 C12.10125,22.67 12.9175,22.60375 13.75,22.56875 L13.75,22.56875 L13.75,22.56875 Z M10.0075,13.75 C10.07875,12.34 10.26625,10.985 10.565,9.70125 C11.59875,9.8525 12.665,9.93875 13.75,9.98125 L13.75,13.75 L10.0075,13.75 L10.0075,13.75 L10.0075,13.75 Z M11.2875,7.27625 C11.9125,5.59375 12.74375,4.1175 13.75,2.90625 L13.75,7.4825 C12.91125,7.4475 12.08875,7.38125 11.2875,7.27625 L11.2875,7.27625 L11.2875,7.27625 Z M8.78125,6.83875 C7.89625,6.6325 7.06,6.3725 6.25875,6.08 C7.43,4.9325 8.825,4.0175 10.37125,3.3975 C9.75125,4.4525 9.2125,5.6 8.78125,6.83875 L8.78125,6.83875 L8.78125,6.83875 Z M8.095,9.23625 C7.765,10.675 7.5525,12.18625 7.48,13.75 L2.56375,13.75 C2.77,11.6775 3.4875,9.75375 4.585,8.1025 C5.685,8.55375 6.855,8.94 8.095,9.23625 L8.095,9.23625 L8.095,9.23625 Z M8.10625,20.81375 C6.87125,21.10875 5.70625,21.49125 4.61,21.93875 C3.4975,20.27875 2.77125,18.34 2.56375,16.25 L7.48125,16.25 C7.55375,17.83125 7.77,19.36 8.10625,20.81375 L8.10625,20.81375 L8.10625,20.81375 Z M8.7975,23.21 C9.225,24.43 9.7575,25.56125 10.36875,26.6 C8.84,25.9875 7.46125,25.08625 6.29875,23.95625 C7.09375,23.67 7.9225,23.4125 8.7975,23.21 L8.7975,23.21 L8.7975,23.21 Z M21.2025,23.21 C22.0775,23.41375 22.905,23.66875 23.70125,23.95625 C22.5375,25.085 21.15875,25.9875 19.63,26.60125 C20.24125,25.56125 20.77375,24.43 21.2025,23.21 L21.2025,23.21 L21.2025,23.21 Z M21.89375,20.81375 C22.23125,19.36 22.44625,17.83125 22.52,16.25 L27.4375,16.25 C27.22875,18.34 26.5025,20.27875 25.39,21.93875 C24.29375,21.49125 23.1275,21.10875 21.89375,20.81375 L21.89375,20.81375 L21.89375,20.81375 Z M22.52,13.75 C22.4475,12.18625 22.23375,10.675 21.905,9.23625 C23.145,8.94 24.31625,8.55375 25.41625,8.1025 C26.5125,9.75375 27.23,11.6775 27.43625,13.75 L22.52,13.75 L22.52,13.75 L22.52,13.75 Z" id="web" fill="#0D41C2"></path>
    </g>
</svg>