<svg viewBox="0 0 960 1800" xmlns="http://www.w3.org/2000/svg"><title>header-intro-resp</title><path d="M0 0h960v1800H0V0zm458.667 689.786c10.32 0 14.874-5.536 14.874-11.936 0-14.3-22.36-9.86-22.36-17.068 0-2.825 2.54-4.785 6.46-4.785 4.04 0 8.13 1.384 11.19 4.44l3.81-5.017c-3.51-3.46-8.41-5.42-14.35-5.42-8.47 0-14 4.9-14 11.3 0 14.128 22.37 9.112 22.37 17.184 0 2.595-2.12 5.305-7.66 5.305-5.35 0-9.57-2.54-12.15-5.37l-3.81 5.25c3.47 3.57 8.59 6.11 15.69 6.11h-.06zm95.51.034c6.63 0 12.047-2.82 15.796-7.03v-14.36h-18.217v5.94h11.53v5.94c-1.73 1.67-5.19 3.46-9.11 3.46-7.61 0-13.258-5.88-13.258-13.89 0-8.13 5.65-13.89 13.26-13.89 4.265 0 7.897 2.25 9.973 5.13l5.48-3.17c-3.05-4.38-7.95-7.95-15.45-7.95-11.18 0-20.17 7.788-20.17 19.89 0 12.05 9 19.95 20.18 19.95v-.02h-.01zm-209.815-.36c11.992 0 20.062-7.9 20.062-19.26 0-11.24-8.07-19.2-20.13-19.2H330v38.46h14.362zm.19-5.88H337V657h7.61c8.53 0 13.144 5.88 13.144 13.26 0 7.33-4.843 13.32-13.202 13.32zm53.22-10.79h-.03v10.73h19.604v5.94H391V651h26.346v5.94h-19.6v9.92h.028v5.94l-.002-.01zm108.974-4.08V651H500v17.71h6.745zm124.575 18.47v2.28h-6.51l-20.06-27.51v27.51H598V651h6.918l17.49 23.7 8.913 12.48zM330.01 737h14.335c24.26 0 40.51 16.02 40.51 38.64 0 22.86-16.253 38.75-40.398 38.75H330v-11.95h14.335c16.823 0 26.572-12.06 26.572-26.8 0-14.85-9.29-26.68-26.462-26.68H330v-11.95l.008-.01h.002zm37.02 326.39v-65.44h23.445V986H330v11.95h23.446v65.44h13.584zm217.55-125v-29.01h20.546c16.134 0 25.188-11.02 25.188-24.13 0-13.22-8.937-24.25-25.188-24.25H571v77.39h13.58zm19.11-40.91H585V873h18.69c7.66 0 13.115 4.87 13.115 12.297 0 7.31-5.454 12.184-13.116 12.184zm-2.117-83.417c20.78 0 29.95-11.14 29.95-24.02 0-28.78-45.038-19.84-45.038-34.35 0-5.684 5.108-9.63 13-9.63 8.126 0 16.367 2.785 22.52 8.935l7.66-10.094C622.58 737.944 612.715 734 600.76 734c-17.063 0-28.207 9.86-28.207 22.74 0 28.427 45.037 18.33 45.037 34.576 0 5.228-4.295 10.68-15.433 10.68-10.79 0-19.27-5.102-24.495-10.79L570 801.766c6.973 7.195 17.302 12.3 31.577 12.3l-.006-.003h.01zM360.557 1190.05c20.778 0 29.947-11.14 29.947-24.02 0-28.775-45.037-19.84-45.037-34.344 0-5.685 5.108-9.63 13-9.63 8.126 0 16.367 2.784 22.52 8.934l7.66-10.09c-7.082-6.96-16.947-10.9-28.903-10.9-17.062 0-28.206 9.86-28.206 22.74 0 28.43 45.043 18.34 45.043 34.58 0 5.227-4.29 10.68-15.43 10.68-10.79 0-19.27-5.104-24.48-10.79l-7.67 10.56c6.97 7.193 17.31 12.298 31.58 12.298l-.02-.02v.002zM486.97 812.91v-77.39h-13.58v77.39h13.58zm27.12 83.71v11.14c0 19.144-11.028 32.023-33.545 32.023-22.404 0-33.545-12.88-33.545-32.023V861h13.812v46.41c0 12.3 6.852 20.3 19.74 20.3 12.886 0 19.738-8.01 19.738-20.31v-10.79h13.806l-.006.01zm-67.072 128.99a48.67 48.67 0 0 1-.003-.58c0-23.09 16.366-40.03 39.58-40.03 23.1 0 39.583 16.94 39.583 40.03 0 23.088-16.483 40.028-39.59 40.028h-.12v-12.068h.11c15.555 0 25.654-12.066 25.654-27.96 0-16.013-10.1-27.964-25.653-27.964-15.68 0-25.66 11.95-25.66 27.963v.58H447h.018zM584 986h20.437c15.32 0 25.415 9.862 25.415 24.25 0 13.69-9.05 21.232-18.45 22.74l19.03 30.4H614.65l-17.06-28.89h-13.578v28.89H584V986zm18.685 36.598H584V998h18.685c7.66 0 13.23 4.757 13.23 12.183 0 7.542-5.57 12.415-13.23 12.415zM330.008 909.383V861h34.01c15.322 0 25.42 9.862 25.42 24.25 0 13.69-9.06 21.233-18.46 22.74l19.03 30.4h-15.784l-17.062-28.89h-10.74v-.117H330h.008zm31.683-11.785H343V873h18.69c7.653 0 13.227 4.758 13.227 12.184 0 7.54-5.574 12.414-13.236 12.414h.01z" fill-rule="evenodd" opacity=".8"/></svg>