<svg width="4000" height="4000" viewBox="0 0 4000 4000" xmlns="http://www.w3.org/2000/svg"><title>Cover</title><path d="M4000 0v4000H0V0h4000zM1799 1973.7V1932h29.3c13.2 0 21.9 8.5 21.9 20.9 0 11.8-7.8 18.3-15.9 19.6l16.4 26.2h-13.6l-14.7-24.9h-9.25v-.1H1799zm519-41.7h17.607c13.197 0 21.895 8.5 21.895 20.9 0 11.8-7.798 18.3-15.896 19.6l16.396 26.2h-13.597l-14.697-24.9h-11.697v24.9h-.01V1932zm-126.997 34a41.785 41.785 0 0 1-.003-.5c0-19.9 14.1-34.5 34.1-34.5 19.9 0 34.1 14.6 34.1 34.5s-14.2 34.5-34.1 34.5h-.1v-10.4h.1c13.4 0 22.1-10.4 22.1-24.1 0-13.8-8.7-24.1-22.1-24.1-13.5 0-22.1 10.3-22.1 24.1 0 .167 0 .334.004.5h-12zm-235.203-3.3v9.6c0 16.5-9.5 27.6-28.9 27.6-19.3 0-28.9-11.1-28.9-27.6V1932h11.9v40c0 10.6 5.9 17.5 17 17.5s17-6.9 17-17.5v-9.3h11.9zm-302.1 36V1932H1642v66.7h11.7zm774.5 1.3c17.9 0 25.8-9.6 25.8-20.7 0-24.8-38.8-17.1-38.8-29.6 0-4.9 4.4-8.3 11.2-8.3 7 0 14.1 2.4 19.4 7.7l6.6-8.7c-6.1-6-14.6-9.4-24.9-9.4-14.7 0-24.3 8.5-24.3 19.6 0 24.5 38.8 15.8 38.8 29.8 0 4.5-3.7 9.2-13.3 9.2-9.3 0-16.6-4.4-21.1-9.3l-6.6 9.1c6 6.2 14.9 10.6 27.2 10.6zm-702 0c17.9 0 25.8-9.6 25.8-20.7 0-24.8-38.8-17.1-38.8-29.6 0-4.9 4.4-8.3 11.2-8.3 7 0 14.1 2.4 19.4 7.7l6.6-8.7c-6.1-6-14.6-9.4-24.9-9.4-14.7 0-24.3 8.5-24.3 19.6 0 24.5 38.8 15.8 38.8 29.8 0 4.5-3.7 9.2-13.3 9.2-9.3 0-16.6-4.4-21.1-9.3l-6.6 9.1c6 6.2 14.9 10.6 27.2 10.6zm291.5-1.3v-25h17.7c13.9 0 21.7-9.5 21.7-20.8 0-11.4-7.7-20.9-21.7-20.9H2006v66.7h11.7zm15.4-34.6H2017V1943h16.1c6.6 0 11.3 4.2 11.3 10.6 0 6.3-4.7 10.5-11.3 10.5zm96.8 34.6v-56.4h20.2V1932H2098v10.3h20.2v56.4h11.7zm204.197-35.5H2318V1942h16.097c6.598 0 11.397 4.1 11.397 10.5 0 6.5-4.8 10.7-11.397 10.7zM1547 1932h12.35c20.9 0 34.9 13.8 34.9 33.3 0 19.7-14 33.4-34.8 33.4H1547v-10.3h12.35c14.5 0 22.9-10.4 22.9-23.1 0-12.8-8-23-22.8-23H1547V1932zm280.1 32.2H1811V1943h16.1c6.6 0 11.4 4.1 11.4 10.5 0 6.5-4.8 10.7-11.4 10.7zm76.984-74.173c8.423 0 14.092-5.55 14.092-13.534 0-7.9-5.67-13.493-14.133-13.493H1894v27.027h10.084zm202.323-1.6v1.6h-4.576l-14.09-19.328v19.32H2083V1863h4.86l12.285 16.654 6.262 8.773zm-87.67-12.987V1863H2014v12.44h4.738zm-76.98 2.877h-.02v7.537h13.77v4.173H1937V1863h18.507v4.174h-13.77v6.97h.02v4.173zm-37.452 8.363H1899V1868h5.346c5.993 0 9.233 4.133 9.233 9.32 0 5.146-3.41 9.36-9.28 9.36zm147.87 4.32c4.656 0 8.463-1.986 11.095-4.944v-10.09h-12.797v4.174h8.1v4.174c-1.216 1.175-3.645 2.43-6.4 2.43-5.345 0-9.313-4.132-9.313-9.764 0-5.714 3.968-9.766 9.314-9.766 2.997 0 5.548 1.58 7.006 3.607l3.847-2.22c-2.146-3.08-5.59-5.59-10.853-5.59-7.857 0-14.174 5.47-14.174 13.98 0 8.47 6.317 14.02 14.174 14.02zm-67.16-.04c7.25 0 10.448-3.89 10.448-8.388 0-10.05-15.712-6.93-15.712-11.995 0-1.985 1.79-3.363 4.54-3.363 2.84 0 5.71.973 7.86 3.12l2.68-3.525c-2.47-2.44-5.91-3.81-10.08-3.81-5.95 0-9.84 3.44-9.84 7.94 0 9.93 15.71 6.4 15.71 12.07 0 1.82-1.5 3.73-5.38 3.73-3.76 0-6.72-1.79-8.54-3.77l-2.67 3.68c2.43 2.51 6.04 4.29 11.02 4.29z" fill-rule="evenodd" opacity=".8"/></svg>