<svg width="200" height="40" viewBox="0 0 200 40" xmlns="http://www.w3.org/2000/svg"><title>logo-horizontal-white</title><g fill="#FFF" fill-rule="evenodd"><path d="M61.943 14.377l-1.978 1.156c-.37-.633-.722-1.046-1.057-1.239-.349-.22-.799-.33-1.35-.33-.677 0-1.239.189-1.685.568-.447.371-.67.84-.67 1.404 0 .778.586 1.404 1.758 1.88l1.612.65c1.312.523 2.271 1.162 2.878 1.915.608.754.911 1.678.911 2.773 0 1.466-.495 2.678-1.486 3.635-.998.964-2.237 1.445-3.716 1.445-1.402 0-2.56-.41-3.475-1.228-.9-.82-1.462-1.973-1.685-3.46l2.47-.537c.112.937.307 1.584.586 1.942.503.688 1.235 1.032 2.198 1.032.76 0 1.392-.25 1.895-.753.502-.503.753-1.14.753-1.91 0-.31-.043-.595-.13-.853a2.154 2.154 0 0 0-.409-.712 3.25 3.25 0 0 0-.717-.61 6.94 6.94 0 0 0-1.046-.542l-1.56-.64c-2.212-.922-3.318-2.272-3.318-4.048 0-1.198.464-2.2 1.392-3.005.928-.812 2.083-1.218 3.465-1.218 1.863 0 3.318.895 4.364 2.685zm10.184-2.375v9.603c0 1.37.226 2.372.68 3.005.677.916 1.63 1.373 2.857 1.373 1.235 0 2.191-.457 2.868-1.373.454-.613.68-1.614.68-3.005v-9.603h2.44v10.264c0 1.68-.531 3.063-1.592 4.151-1.193 1.212-2.658 1.817-4.396 1.817-1.737 0-3.199-.605-4.385-1.817-1.06-1.088-1.591-2.471-1.591-4.151V12.002h2.439zm17.782 15.943V12.002h2.428c1.081 0 1.943.082 2.585.247.649.166 1.197.444 1.643.837a4.34 4.34 0 0 1 1.078 1.518 4.54 4.54 0 0 1 .409 1.859c0 1.142-.443 2.11-1.33 2.901a3.9 3.9 0 0 1 2.03 1.518c.503.716.754 1.55.754 2.5 0 1.245-.446 2.298-1.34 3.159-.537.53-1.14.898-1.81 1.105-.733.2-1.65.3-2.753.3H89.91zm2.438-9.097h.764c.907 0 1.572-.198 1.994-.594.422-.396.633-.98.633-1.75 0-.75-.216-1.32-.648-1.71-.433-.388-1.061-.583-1.884-.583h-.859v4.637zm0 6.836h1.507c1.103 0 1.912-.214 2.429-.64a2.201 2.201 0 0 0 .816-1.756c0-.688-.262-1.266-.785-1.735-.51-.46-1.42-.691-2.732-.691h-1.235v4.822zm14.82-13.682l4.47 11.049L116.168 12h2.669l-7.254 17.142-7.086-17.141h2.67zm20.503 0v15.943h-2.438V12.002h2.438zm17.406 2.375l-1.979 1.156c-.37-.633-.722-1.046-1.057-1.239-.349-.22-.799-.33-1.35-.33-.677 0-1.238.189-1.685.568-.447.371-.67.84-.67 1.404 0 .778.586 1.404 1.758 1.88l1.612.65c1.312.523 2.272 1.162 2.879 1.915.607.754.91 1.678.91 2.773 0 1.466-.495 2.678-1.486 3.635-.998.964-2.236 1.445-3.716 1.445-1.402 0-2.56-.41-3.475-1.228-.9-.82-1.461-1.973-1.685-3.46l2.47-.537c.112.937.307 1.584.587 1.942.502.688 1.235 1.032 2.198 1.032.76 0 1.392-.25 1.894-.753s.754-1.14.754-1.91c0-.31-.044-.595-.131-.853a2.154 2.154 0 0 0-.408-.712 3.25 3.25 0 0 0-.717-.61 6.94 6.94 0 0 0-1.047-.542l-1.56-.64c-2.212-.922-3.318-2.272-3.318-4.048 0-1.198.464-2.2 1.393-3.005.928-.812 2.082-1.218 3.464-1.218 1.863 0 3.318.895 4.365 2.685zm10.183-2.375v9.603c0 1.37.227 2.372.68 3.005.677.916 1.63 1.373 2.858 1.373 1.235 0 2.19-.457 2.867-1.373.454-.613.68-1.614.68-3.005v-9.603h2.44v10.264c0 1.68-.53 3.063-1.591 4.151-1.194 1.212-2.659 1.817-4.396 1.817-1.738 0-3.2-.605-4.386-1.817-1.06-1.088-1.59-2.471-1.59-4.151V12.002h2.438zm26.584 12.071h-6.918l-1.8 3.872h-2.628L178.494 11l7.714 16.945h-2.67l-1.695-3.872zm-.994-2.261l-2.397-5.422-2.512 5.422h4.909zm14.202-9.81v13.682h4.752v2.261h-7.19V12.002h2.438zM.01 7.573L13.397.028V.027l13.287 7.565v7.879L13.397 7.578l-6.432 3.784 2.384-1.408-9.34-2.38zm-.003.001L0 7.578v7.88l.007-.005V7.574zM17.74 29.802l-4.251 2.59v.023L.096 24.527v7.89l13.393 7.56v.01l13.304-7.827-9.053-2.358z"/><path d="M26.795 32.142L0 15.452V7.568l26.795 16.69v7.884z"/></g></svg>