<svg id="Layer_1" xmlns="http://www.w3.org/2000/svg" viewBox="-39 79 60 60"><style>.st0{fill:#fff}</style><path id="XMLID_48_" class="st0" d="M21 79v58L5 121V95h-26l-16-16h58zm-6.8 58.4l-1.6 1.6h3.1l-1.5-1.6zm0-3.1l-1.6 1.6 1.6 1.6 1.6-1.6-1.6-1.6zM-3 126.4l-1.6-1.6-1.6 1.6 1.6 1.6 1.6-1.6zm-9.4 0l-1.6-1.6-1.6 1.6 1.6 1.6 1.6-1.6zm9.1-3.4h-2.5l-.3.3 1.6 1.6 1.6-1.6-.4-.3zm-6 3.4l-1.6-1.6-1.6 1.6 1.6 1.6 1.6-1.6zm-.3-3.4h-2.5l-.3.3 1.6 1.6 1.6-1.6-.4-.3zm-7.6 1.8l-1.6 1.6 1.6 1.6 1.6-1.6-1.6-1.6zm1.3-1.8h-2.5l-.3.3 1.6 1.6 1.6-1.6-.4-.3zm9.7 3.4l-1.6-1.6-1.6 1.6 1.6 1.6 1.6-1.6zm9.5 0l-1.6-1.6-1.6 1.6 1.6 1.6 1.6-1.6zm3.1 0l-1.6-1.6-1.6 1.6 1.6 1.6 1.6-1.6zm-7.9 1.6l1.6-1.6-1.6-1.6-1.6 1.6 1.6 1.6zm1.6-4.7l-.3-.3h-2.5l-.3.3 1.6 1.6 1.5-1.6zM9.5 139h3.1l-1.6-1.6-1.5 1.6zm-4.7-4.7l1.6-1.6-1.6-1.6-1.6 1.6 1.6 1.6zm6.3-3.2l-1.6 1.6 1.6 1.6 1.6-1.6-1.6-1.6zm-7.8 4.7l1.6 1.6 1.6-1.6-1.6-1.6-1.6 1.6zm1.5-4.7l1.6-1.6-1.6-1.5-1.6 1.6 1.6 1.5zm4.7-1.5L8 128l-1.6 1.6 1.6 1.6 1.5-1.6zm-9.4 0l1.6 1.6 1.6-1.6-1.6-1.6-1.6 1.6zm-3.1 0l1.6 1.6 1.6-1.6-1.6-1.6-1.6 1.6zm6.3 9.4h3.1l-1.6-1.6-1.5 1.6zm7.8-4.7l-1.6 1.6 1.6 1.6 1.6-1.6-1.6-1.6zM-3 139H.1l-1.6-1.6L-3 139zm9.4-3.2l1.6 1.6 1.6-1.6-1.6-1.5-1.6 1.5zm-7.9-1.5l1.6-1.6-1.6-1.6-1.6 1.6 1.6 1.6zm-1.5 1.5l1.6 1.6 1.6-1.6-1.6-1.6-1.6 1.6zm3.1 0l1.6 1.6 1.6-1.6-1.6-1.6-1.6 1.6zm-18.8 0l1.6 1.6 1.6-1.6-1.6-1.6-1.6 1.6zm12.5 3.2h3.1l-1.6-1.6-1.5 1.6zm1.6-11l-1.6 1.6 1.6 1.6 1.6-1.6-1.6-1.6zm-4.7 1.6l1.6 1.6 1.6-1.6-1.6-1.6-1.6 1.6zm-3.1 9.4h3.1l-1.6-1.6-1.5 1.6zm0-9.4l1.6 1.6 1.6-1.6-1.6-1.6-1.6 1.6zm3.1 6.2l1.6 1.6 1.6-1.6-1.6-1.6-1.6 1.6zm4.7-4.7l-1.6 1.6 1.6 1.6 1.6-1.6-1.6-1.6zm0 3.2l-1.6 1.6 1.6 1.6 1.6-1.6-1.6-1.6zm-12.6-6.3l-1.6 1.6 1.6 1.6 1.6-1.6-1.6-1.6zm0 3.1l-1.6 1.6 1.6 1.6 1.6-1.6-1.6-1.6zm1.6 4.7l1.6 1.6 1.6-1.6-1.6-1.6-1.6 1.6zm0-6.2l1.6 1.6 1.6-1.6-1.6-1.6-1.6 1.6zm3.2 6.2l1.6 1.6 1.6-1.6-1.6-1.6-1.6 1.6zm1.5-1.5l1.6-1.6-1.6-1.6-1.6 1.6 1.6 1.6zm-7.8 4.7h3.1l-1.6-1.6-1.5 1.6zM-36 90.3l-1.6 1.6 1.6 1.6 1.6-1.6-1.6-1.6zm-3-.1l1.5-1.5-1.5-1.5v3zm3-3l-1.6 1.6 1.6 1.6 1.6-1.6-1.6-1.6zm-3 9.3l1.5-1.5-1.5-1.5v3zm3-3.1l-1.6 1.6 1.6 1.6 1.6-1.6-1.6-1.6zm0-9.4l-1.6 1.6 1.6 1.6 1.6-1.6L-36 84zm-3-3v2.9l1.5-1.5L-39 81zm10.9 14l-1.6-1.6-1.6 1.6 1.6 1.6 1.6-1.6zm-4.8-1.6l1.6-1.6-1.6-1.6-1.6 1.6 1.6 1.6zm0 3.2l1.6-1.6-1.6-1.6-1.6 1.6 1.6 1.6zM-25 95l-1.6-1.6-1.6 1.6 1.6 1.6L-25 95zm-6.3-6.3l-1.6-1.6-1.6 1.6 1.6 1.6 1.6-1.6zm8.3 10.6V97l-.4-.4-1.6 1.6 1.6 1.6.4-.5zm-8.3 11.4l1.6 1.6 1.6-1.6-1.6-1.6-1.6 1.6zm4.7-11l1.6-1.6-1.6-1.6-1.6 1.6 1.6 1.6zm3.6 5.9v-2.3l-.4-.4-1.6 1.6 1.6 1.6.4-.5zm-3.6-2.7l1.6-1.6-1.6-1.6-1.6 1.6 1.6 1.6zm0 3.1l1.6-1.6-1.6-1.6-1.6 1.6 1.6 1.6zm3.6 5.8v-2.3l-.4-.4-1.6 1.6 1.6 1.6.4-.5zm-5.1-7.4l-1.6-1.6-1.6 1.6 1.6 1.6 1.6-1.6zm-4.8-4.7l-1.6 1.6 1.6 1.6 1.6-1.6-1.6-1.6zm0 3.2l-1.6 1.6 1.6 1.6 1.6-1.6-1.6-1.6zm4.8-4.8l-1.6-1.6-1.6 1.6 1.6 1.6 1.6-1.6zm-4.8-1.5l-1.6 1.6 1.6 1.6 1.6-1.6-1.6-1.6zm6.3 15.7l1.6-1.6-1.6-1.6-1.6 1.6 1.6 1.6zm-7.8-1.6l1.6 1.6 1.6-1.6-1.6-1.6-1.6 1.6zm1.5-4.7l-1.6 1.6 1.6 1.6 1.6-1.6-1.6-1.6zm6.3 3.1l1.6-1.6-1.6-1.6-1.6 1.6 1.6 1.6zm-9.4-6.2l-1.6 1.6 1.6 1.6 1.6-1.6-1.6-1.6zm0-3.2l-1.6 1.6 1.6 1.6 1.6-1.6-1.6-1.6zm0-3.1l-1.6 1.6 1.6 1.6 1.6-1.6-1.6-1.6zm-3 3l1.5-1.5-1.5-1.5v3zm0 9.6v2.9l1.5-1.5-1.5-1.4zm0-3.3l1.5-1.5-1.5-1.4v2.9zm3 .1l-1.6 1.6 1.6 1.6 1.6-1.6-1.6-1.6zm1.6 4.7l-1.6-1.6-1.6 1.6 1.6 1.6 1.6-1.6zm-4.6 17.2l1.5-1.5-1.5-1.5v3zm3-3.1l-1.6 1.6 1.6 1.6 1.6-1.6-1.6-1.6zm-3-3.2l1.5-1.5-1.5-1.5v3zm3 .1l-1.6 1.6 1.6 1.6 1.6-1.6-1.6-1.6zm-3-6.4l1.5-1.5-1.5-1.5v3zm3 3.3l-1.6 1.6 1.6 1.6 1.6-1.6-1.6-1.6zm0-3.2l-1.6 1.6 1.6 1.6 1.6-1.6-1.6-1.6zm0-3.1l-1.6 1.6 1.6 1.6 1.6-1.6-1.6-1.6zm9.4 9.4l1.6-1.6-1.6-1.6-1.6 1.6 1.6 1.6zm0 3.1l1.6-1.6-1.6-1.6-1.6 1.6 1.6 1.6zm4.7 1.6l-1.6-1.6-1.6 1.6 1.6 1.6 1.6-1.6zm1.6-1.6l-1.6 1.6 1.6 1.6 1.6-1.6-1.6-1.6zm-6.3 3.2l1.6-1.6-1.6-1.6-1.6 1.6 1.6 1.6zm3.6-6.7V119l-.4-.4-1.6 1.6 1.6 1.6.4-.5zm0-6.3v-2.3l-.4-.4-1.6 1.6 1.6 1.6.4-.5zm-9.9 6.7l-1.6 1.6 1.6 1.6 1.6-1.6-1.6-1.6zm0 3.1l-1.6 1.6 1.6 1.6 1.6-1.6-1.6-1.6zM-19 123h-2.5l-.3.3 1.6 1.6 1.6-1.6-.4-.3zm-12.3-9.2l-1.6-1.6-1.6 1.6 1.6 1.6 1.6-1.6zm-1.6 4.8l-1.6 1.6 1.6 1.6 1.6-1.6-1.6-1.6zm0-3.2l-1.6 1.6 1.6 1.6 1.6-1.6-1.6-1.6zm4.8-1.6l-1.6-1.6-1.6 1.6 1.6 1.6 1.6-1.6zm3.1 0l-1.6-1.6-1.6 1.6 1.6 1.6 1.6-1.6zm-3.1 6.3l-1.6-1.6-1.6 1.6 1.6 1.6 1.6-1.6zm0 6.3l-1.6-1.6-1.6 1.6 1.6 1.6 1.6-1.6zm1.5-7.8l1.6-1.6-1.6-1.6-1.6 1.6 1.6 1.6zm-7.8 11l1.6 1.6 1.6-1.6-1.6-1.6-1.6 1.6zm3.1 0l1.6 1.6 1.6-1.6-1.6-1.6-1.6 1.6zm3.2 0l1.6 1.6 1.6-1.6-1.6-1.6-1.6 1.6zm-4.8 4.7l1.6-1.6-1.6-1.6-1.6 1.6 1.6 1.6zm9.5-3.2l1.6-1.6-1.6-1.6-1.6 1.6 1.6 1.6zm-11 7.9h3.1l-1.6-1.6-1.5 1.6zm14.1-1.6l1.6-1.6-1.6-1.6-1.6 1.6 1.6 1.6zm0-3.1l1.6-1.6-1.6-1.6-1.6 1.6 1.6 1.6zm-14.1 1.5l1.6 1.6 1.6-1.6-1.6-1.6-1.6 1.6zm3.1 0l1.6 1.6 1.6-1.6-1.6-1.6-1.6 1.6zm3.2 0l1.6 1.6 1.6-1.6-1.6-1.6-1.6 1.6zm0 3.2h3.1l-1.6-1.6-1.5 1.6zm3.1-3.2l1.6 1.6 1.6-1.6-1.6-1.6-1.6 1.6zm3.2 3.2h3.1l-1.6-1.6-1.5 1.6zm1.5-7.9l1.6-1.6-1.6-1.6-1.6 1.6 1.6 1.6zm-6.3 3.2l1.6-1.6-1.6-1.6-1.6 1.6 1.6 1.6zM-39 131l1.5-1.5-1.5-1.5v3zm3 3.3l-1.6 1.6 1.6 1.6 1.6-1.6-1.6-1.6zm0-6.3l-1.6 1.6 1.6 1.6 1.6-1.6-1.6-1.6zm-3 9.3l1.5-1.5-1.5-1.5v3zm3-6.2l-1.6 1.6 1.6 1.6 1.6-1.6-1.6-1.6zm-1.6 7.9h3.1l-1.6-1.6-1.5 1.6zm53.4 0h2.9l-1.5-1.5-1.4 1.5z"/></svg>