<?xml version="1.0" encoding="utf-8"?>
<!-- Generator: Adobe Illustrator 19.0.0, SVG Export Plug-In . SVG Version: 6.00 Build 0)  -->
<svg version="1.1" id="Layer_1" xmlns="http://www.w3.org/2000/svg" xmlns:xlink="http://www.w3.org/1999/xlink" x="0px" y="0px"
	 viewBox="-39 79 60 60" style="enable-background:new -39 79 60 60;" xml:space="preserve">
<style type="text/css">
	.st0{fill:#FFFFFF;}
</style>
<path id="XMLID_48_" class="st0" d="M21,79v58L5,121l0,0V95h-26l-16-16H21z M14.2,137.4l-1.6,1.6l0,0h3.1l0,0L14.2,137.4z
	 M14.2,134.3l-1.6,1.6l1.6,1.6l1.6-1.6L14.2,134.3z M-3,126.4l-1.6-1.6l-1.6,1.6l1.6,1.6L-3,126.4z M-12.4,126.4l-1.6-1.6l-1.6,1.6
	l1.6,1.6L-12.4,126.4z M-3.3,123h-2.5l-0.3,0.3l1.6,1.6l1.6-1.6L-3.3,123z M-9.3,126.4l-1.6-1.6l-1.6,1.6l1.6,1.6L-9.3,126.4z
	 M-9.6,123h-2.5l-0.3,0.3l1.6,1.6l1.6-1.6L-9.6,123z M-17.2,124.8l-1.6,1.6l1.6,1.6l1.6-1.6L-17.2,124.8z M-15.9,123h-2.5l-0.3,0.3
	l1.6,1.6l1.6-1.6L-15.9,123z M-6.2,126.4l-1.6-1.6l-1.6,1.6l1.6,1.6L-6.2,126.4z M3.3,126.4l-1.6-1.6l-1.6,1.6l1.6,1.6L3.3,126.4z
	 M6.4,126.4l-1.6-1.6l-1.6,1.6l1.6,1.6L6.4,126.4z M-1.5,128l1.6-1.6l-1.6-1.6l-1.6,1.6L-1.5,128z M0.1,123.3l-0.3-0.3h-2.5
	l-0.3,0.3l1.6,1.6L0.1,123.3z M9.5,139L9.5,139l3.1,0l0,0l-1.6-1.6L9.5,139z M4.8,134.3l1.6-1.6l-1.6-1.6l-1.6,1.6L4.8,134.3z
	 M11.1,131.1l-1.6,1.6l1.6,1.6l1.6-1.6L11.1,131.1z M3.3,135.8l1.6,1.6l1.6-1.6l-1.6-1.6L3.3,135.8z M4.8,131.1l1.6-1.6L4.8,128
	l-1.6,1.6L4.8,131.1z M9.5,129.6L8,128l-1.6,1.6l1.6,1.6L9.5,129.6z M0.1,129.6l1.6,1.6l1.6-1.6L1.7,128L0.1,129.6z M-3,129.6
	l1.6,1.6l1.6-1.6l-1.6-1.6L-3,129.6z M3.3,139h3.1l0,0l-1.6-1.6L3.3,139L3.3,139z M11.1,134.3l-1.6,1.6l1.6,1.6l1.6-1.6L11.1,134.3z
	 M-3,139h3.1l0,0l-1.6-1.6L-3,139L-3,139z M6.4,135.8l1.6,1.6l1.6-1.6L8,134.3L6.4,135.8z M-1.5,134.3l1.6-1.6l-1.6-1.6l-1.6,1.6
	L-1.5,134.3z M-3,135.8l1.6,1.6l1.6-1.6l-1.6-1.6L-3,135.8z M0.1,135.8l1.6,1.6l1.6-1.6l-1.6-1.6L0.1,135.8z M-18.7,135.8l1.6,1.6
	l1.6-1.6l-1.6-1.6L-18.7,135.8z M-6.2,139L-6.2,139l3.1,0l0,0l-1.6-1.6L-6.2,139z M-4.6,128l-1.6,1.6l1.6,1.6l1.6-1.6L-4.6,128z
	 M-9.3,129.6l1.6,1.6l1.6-1.6l-1.6-1.6L-9.3,129.6z M-12.4,139h3.1l0,0l-1.6-1.6L-12.4,139L-12.4,139z M-12.4,129.6l1.6,1.6l1.6-1.6
	l-1.6-1.6L-12.4,129.6z M-9.3,135.8l1.6,1.6l1.6-1.6l-1.6-1.6L-9.3,135.8z M-4.6,131.1l-1.6,1.6l1.6,1.6l1.6-1.6L-4.6,131.1z
	 M-4.6,134.3l-1.6,1.6l1.6,1.6l1.6-1.6L-4.6,134.3z M-17.2,128l-1.6,1.6l1.6,1.6l1.6-1.6L-17.2,128z M-17.2,131.1l-1.6,1.6l1.6,1.6
	l1.6-1.6L-17.2,131.1z M-15.6,135.8l1.6,1.6l1.6-1.6l-1.6-1.6L-15.6,135.8z M-15.6,129.6l1.6,1.6l1.6-1.6L-14,128L-15.6,129.6z
	 M-12.4,135.8l1.6,1.6l1.6-1.6l-1.6-1.6L-12.4,135.8z M-10.9,134.3l1.6-1.6l-1.6-1.6l-1.6,1.6L-10.9,134.3z M-18.7,139h3.1l0,0
	l-1.6-1.6L-18.7,139L-18.7,139z M-36,90.3l-1.6,1.6l1.6,1.6l1.6-1.6L-36,90.3z M-39,90.2l1.5-1.5l-1.5-1.5V90.2z M-36,87.2l-1.6,1.6
	l1.6,1.6l1.6-1.6L-36,87.2z M-39,96.5l1.5-1.5l-1.5-1.5V96.5z M-36,93.4l-1.6,1.6l1.6,1.6l1.6-1.6L-36,93.4z M-36,84l-1.6,1.6
	l1.6,1.6l1.6-1.6L-36,84z M-39,81v2.9l1.5-1.5L-39,81z M-28.1,95l-1.6-1.6l-1.6,1.6l1.6,1.6L-28.1,95z M-32.9,93.4l1.6-1.6l-1.6-1.6
	l-1.6,1.6L-32.9,93.4z M-32.9,96.6l1.6-1.6l-1.6-1.6l-1.6,1.6L-32.9,96.6z M-25,95l-1.6-1.6l-1.6,1.6l1.6,1.6L-25,95z M-31.3,88.7
	l-1.6-1.6l-1.6,1.6l1.6,1.6L-31.3,88.7z M-23,99.3V97l-0.4-0.4l-1.6,1.6l1.6,1.6L-23,99.3z M-31.3,110.7l1.6,1.6l1.6-1.6l-1.6-1.6
	L-31.3,110.7z M-26.6,99.7l1.6-1.6l-1.6-1.6l-1.6,1.6L-26.6,99.7z M-23,105.6v-2.3l-0.4-0.4l-1.6,1.6l1.6,1.6L-23,105.6z
	 M-26.6,102.9l1.6-1.6l-1.6-1.6l-1.6,1.6L-26.6,102.9z M-26.6,106l1.6-1.6l-1.6-1.6l-1.6,1.6L-26.6,106z M-23,111.8v-2.3l-0.4-0.4
	l-1.6,1.6l1.6,1.6L-23,111.8z M-28.1,104.4l-1.6-1.6l-1.6,1.6l1.6,1.6L-28.1,104.4z M-32.9,99.7l-1.6,1.6l1.6,1.6l1.6-1.6
	L-32.9,99.7z M-32.9,102.9l-1.6,1.6l1.6,1.6l1.6-1.6L-32.9,102.9z M-28.1,98.1l-1.6-1.6l-1.6,1.6l1.6,1.6L-28.1,98.1z M-32.9,96.6
	l-1.6,1.6l1.6,1.6l1.6-1.6L-32.9,96.6z M-26.6,112.3l1.6-1.6l-1.6-1.6l-1.6,1.6L-26.6,112.3z M-34.4,110.7l1.6,1.6l1.6-1.6l-1.6-1.6
	L-34.4,110.7z M-32.9,106l-1.6,1.6l1.6,1.6l1.6-1.6L-32.9,106z M-26.6,109.1l1.6-1.6l-1.6-1.6l-1.6,1.6L-26.6,109.1z M-36,102.9
	l-1.6,1.6l1.6,1.6l1.6-1.6L-36,102.9z M-36,99.7l-1.6,1.6l1.6,1.6l1.6-1.6L-36,99.7z M-36,96.6l-1.6,1.6l1.6,1.6l1.6-1.6L-36,96.6z
	 M-39,99.6l1.5-1.5l-1.5-1.5V99.6z M-39,109.2v2.9l1.5-1.5L-39,109.2z M-39,105.9l1.5-1.5L-39,103V105.9z M-36,106l-1.6,1.6l1.6,1.6
	l1.6-1.6L-36,106z M-34.4,110.7l-1.6-1.6l-1.6,1.6l1.6,1.6L-34.4,110.7z M-39,127.9l1.5-1.5l-1.5-1.5V127.9z M-36,124.8l-1.6,1.6
	l1.6,1.6l1.6-1.6L-36,124.8z M-39,121.6l1.5-1.5l-1.5-1.5V121.6z M-36,121.7l-1.6,1.6l1.6,1.6l1.6-1.6L-36,121.7z M-39,115.3
	l1.5-1.5l-1.5-1.5V115.3z M-36,118.6l-1.6,1.6l1.6,1.6l1.6-1.6L-36,118.6z M-36,115.4l-1.6,1.6l1.6,1.6l1.6-1.6L-36,115.4z
	 M-36,112.3l-1.6,1.6l1.6,1.6l1.6-1.6L-36,112.3z M-26.6,121.7l1.6-1.6l-1.6-1.6l-1.6,1.6L-26.6,121.7z M-26.6,124.8l1.6-1.6
	l-1.6-1.6l-1.6,1.6L-26.6,124.8z M-21.9,126.4l-1.6-1.6l-1.6,1.6l1.6,1.6L-21.9,126.4z M-20.3,124.8l-1.6,1.6l1.6,1.6l1.6-1.6
	L-20.3,124.8z M-26.6,128l1.6-1.6l-1.6-1.6l-1.6,1.6L-26.6,128z M-23,121.3V119l-0.4-0.4l-1.6,1.6l1.6,1.6L-23,121.3z M-23,115v-2.3
	l-0.4-0.4l-1.6,1.6l1.6,1.6L-23,115z M-32.9,121.7l-1.6,1.6l1.6,1.6l1.6-1.6L-32.9,121.7z M-32.9,124.8l-1.6,1.6l1.6,1.6l1.6-1.6
	L-32.9,124.8z M-19,123h-2.5l-0.3,0.3l1.6,1.6l1.6-1.6L-19,123z M-31.3,113.8l-1.6-1.6l-1.6,1.6l1.6,1.6L-31.3,113.8z M-32.9,118.6
	l-1.6,1.6l1.6,1.6l1.6-1.6L-32.9,118.6z M-32.9,115.4l-1.6,1.6l1.6,1.6l1.6-1.6L-32.9,115.4z M-28.1,113.8l-1.6-1.6l-1.6,1.6
	l1.6,1.6L-28.1,113.8z M-25,113.8l-1.6-1.6l-1.6,1.6l1.6,1.6L-25,113.8z M-28.1,120.1l-1.6-1.6l-1.6,1.6l1.6,1.6L-28.1,120.1z
	 M-28.1,126.4l-1.6-1.6l-1.6,1.6l1.6,1.6L-28.1,126.4z M-26.6,118.6l1.6-1.6l-1.6-1.6l-1.6,1.6L-26.6,118.6z M-34.4,129.6l1.6,1.6
	l1.6-1.6l-1.6-1.6L-34.4,129.6z M-31.3,129.6l1.6,1.6l1.6-1.6l-1.6-1.6L-31.3,129.6z M-28.1,129.6l1.6,1.6l1.6-1.6l-1.6-1.6
	L-28.1,129.6z M-32.9,134.3l1.6-1.6l-1.6-1.6l-1.6,1.6L-32.9,134.3z M-23.4,131.1l1.6-1.6l-1.6-1.6l-1.6,1.6L-23.4,131.1z
	 M-34.4,139h3.1l0,0l-1.6-1.6L-34.4,139L-34.4,139z M-20.3,137.4l1.6-1.6l-1.6-1.6l-1.6,1.6L-20.3,137.4z M-20.3,134.3l1.6-1.6
	l-1.6-1.6l-1.6,1.6L-20.3,134.3z M-34.4,135.8l1.6,1.6l1.6-1.6l-1.6-1.6L-34.4,135.8z M-31.3,135.8l1.6,1.6l1.6-1.6l-1.6-1.6
	L-31.3,135.8z M-28.1,135.8l1.6,1.6l1.6-1.6l-1.6-1.6L-28.1,135.8z M-28.1,139h3.1l0,0l-1.6-1.6L-28.1,139L-28.1,139z M-25,135.8
	l1.6,1.6l1.6-1.6l-1.6-1.6L-25,135.8z M-21.8,139h3.1l0,0l-1.6-1.6L-21.8,139L-21.8,139z M-20.3,131.1l1.6-1.6l-1.6-1.6l-1.6,1.6
	L-20.3,131.1z M-26.6,134.3l1.6-1.6l-1.6-1.6l-1.6,1.6L-26.6,134.3z M-39,131l1.5-1.5l-1.5-1.5V131z M-36,134.3l-1.6,1.6l1.6,1.6
	l1.6-1.6L-36,134.3z M-36,128l-1.6,1.6l1.6,1.6l1.6-1.6L-36,128z M-39,137.3l1.5-1.5l-1.5-1.5V137.3z M-36,131.1l-1.6,1.6l1.6,1.6
	l1.6-1.6L-36,131.1z M-37.6,139L-37.6,139l3.1,0l0,0l-1.6-1.6L-37.6,139z M15.8,139h2.9l-1.5-1.5L15.8,139z"/>
</svg>
