<svg xmlns="http://www.w3.org/2000/svg" width="595.28" height="198.427" viewBox="0 321.732 595.28 198.427"><g fill="#FFF"><path d="M382.405 470.07c-1.926 0-3.371 1.445-3.371 3.371v.482h6.261v-.482c.481-1.926-.964-3.371-2.89-3.371zM411.784 385.787c0-3.853-1.926-6.261-3.853-7.224-1.926-.963-5.298-.963-7.706 0-2.408.963-3.853 2.89-3.853 7.224v8.669h15.412v-8.669zM421.897 470.07c-1.926 0-2.89 1.445-2.89 2.89v1.445c0 1.926.963 2.89 2.89 2.89 1.926 0 2.408-1.445 2.408-2.89v-1.445c.001-1.927-.963-2.89-2.408-2.89zM536.523 470.07c-1.926 0-3.371.963-3.371 3.853v3.371c0 2.89 1.445 3.853 3.371 3.853s3.371-.963 3.371-3.853v-3.371c0-2.408-1.445-3.853-3.371-3.853z"/><path d="M0 520.158h595.28V321.732H0v198.426zm372.291-41.9c0 3.853-3.371 6.743-6.743 6.743-3.853 0-7.224-2.89-7.224-6.743v-4.816c0-4.335 2.89-6.743 7.224-6.743 1.445 0 2.408.482 3.371.482v-6.743h3.853v17.82h-.481zm16.856-.964h-10.114v.963c0 1.926 1.445 3.371 3.371 3.371 1.445 0 2.89-.482 4.816-.963l.963 3.371c-1.926.482-3.853.963-5.779.963-4.335 0-7.224-2.89-7.224-6.743v-4.816c0-3.853 3.371-6.743 7.224-6.743s6.743 2.89 6.743 6.743v3.854zm8.67 7.706c-1.926 0-3.853-.482-5.779-.963l.963-3.371c1.926.482 3.371.963 4.816.963 1.926 0 2.89-.963 2.89-1.926 0-1.445-.963-1.926-1.926-1.926-2.89-.963-5.779-1.926-5.779-5.779 0-2.89 2.408-4.816 6.261-4.816 1.445 0 3.371.482 5.298.963l-1.926 2.89c-1.926-.482-3.371-.963-4.335-.963-1.926 0-2.408.963-2.408 1.445 0 .963.482 1.445 1.926 1.926 2.89.963 6.261 1.926 6.261 6.261-.001 2.407-1.928 5.296-6.262 5.296zm13.485-.481h-3.853v-17.82h3.853v17.82zm-1.927-18.784c-1.445 0-2.408-.963-2.408-2.408s.963-2.408 2.408-2.408c1.445 0 2.408.963 2.408 2.408s-.963 2.408-2.408 2.408zm18.784 7.225v1.445c0 3.853-2.89 6.261-6.261 6.261h-1.445l-.482.482c0 1.445 8.669-.482 8.669 5.298 0 3.371-2.89 5.298-7.224 5.298-2.408 0-5.298-.963-7.224-1.926l.963-2.89c1.926.963 4.335 1.445 5.779 1.445 3.371 0 3.371-1.445 3.371-1.926 0-1.926-8.669 0-8.669-4.816 0-.963.482-1.445.963-1.926-1.445-.963-2.408-2.89-2.408-5.298v-1.445c0-3.853 2.89-6.261 6.261-6.261 1.445 0 2.89.482 3.853.963l1.445-1.445 2.89 2.408-1.926 1.926c1.445.962 1.445 1.444 1.445 2.407zm18.301 11.559h-3.853v-11.077c0-1.926-1.445-3.371-3.371-3.371s-3.371 1.445-3.371 3.371v11.077h-3.853v-11.077c0-3.853 3.371-6.743 7.224-6.743s7.224 2.89 7.224 6.743v11.077zm17.82.481c-1.926 0-3.853-.482-5.779-.963l.963-3.371c1.926.482 3.371.963 4.816.963 1.926 0 2.89-.963 2.89-1.926 0-1.445-.963-1.926-1.926-1.926-2.89-.963-5.779-1.926-5.779-5.779 0-2.89 2.408-4.816 5.779-4.816 1.445 0 3.371.482 5.298.963l-.963 2.89c-1.926-.482-3.371-.963-4.335-.963-1.926 0-2.408.963-2.408 1.445 0 .963.482 1.445 1.926 1.926 2.89.963 6.261 1.926 6.261 6.261-.482 2.407-2.408 5.296-6.743 5.296zm18.783-14.93h-3.371v14.449h-3.853V470.07h-2.408l-.963-2.89h2.89v-4.335l3.853-.963v5.298h3.371v2.89h.481zm16.857 8.188c0 3.853-3.371 6.743-6.743 6.743-3.853 0-7.224-2.89-7.224-6.743V467.18h3.853v11.077c0 1.926 1.445 3.371 3.371 3.371s3.371-1.445 3.371-3.371V467.18h3.853v11.077h-.481zm17.338 0c0 3.853-3.371 6.743-6.743 6.743-3.853 0-7.224-2.89-7.224-6.743v-4.816c0-4.335 2.89-6.743 7.224-6.743 1.445 0 2.408.482 3.371.482v-6.743h3.853v17.82h-.481zm7.706 6.261h-3.853v-17.82h3.853v17.82zm-1.927-18.784c-1.445 0-2.408-.963-2.408-2.408s.963-2.408 2.408-2.408c1.445 0 2.408.963 2.408 2.408.482 1.445-.963 2.408-2.408 2.408zm20.71 12.041c0 4.335-3.371 7.224-7.224 7.224-4.335 0-7.224-2.89-7.224-7.224v-3.371c0-4.335 2.89-7.224 7.224-7.224s7.224 2.89 7.224 7.224v3.371zm-95.36-119.923h43.346v12.522c6.743-17.338 37.085-18.783 46.235-5.779 3.371 4.816 4.335 11.559 4.335 21.191v36.121c0 2.408.963 3.853 2.89 3.853 1.926 0 2.89-1.445 2.89-3.853v-10.114h8.669v9.632c0 9.632-2.89 17.338-8.188 21.673-9.151 8.188-25.526 7.706-33.713 0-5.298-4.816-7.706-11.559-7.706-21.191v-36.121c0-3.853-1.926-6.261-3.853-7.224-1.926-.963-5.298-.963-7.706 0-2.408.963-3.853 2.89-3.853 7.224v60.202h-35.158v-66.945h-7.706v-21.191h-.482zm-44.309-2.89c28.415 0 42.864 18.783 42.864 47.199v2.89H395.89v13.004c0 4.335 1.445 6.261 3.853 7.224 2.408.963 5.779.963 7.706 0 1.926-.963 3.853-3.371 3.853-7.224v-5.298h34.677c-3.371 22.154-17.82 36.121-42.382 36.121-28.897 0-47.199-18.301-47.199-47.199-.001-27.934 18.783-46.717 47.68-46.717zm-133.89 11.559c14.449-15.412 34.677-13.004 43.827-1.445v-7.224h42.382v6.743h-.482c-4.816 0-6.261 4.816-6.261 10.596v65.982c0 5.298-.482 10.596-.963 18.783-1.926 20.228-17.338 29.86-38.529 28.415-7.706-.482-17.338-3.371-22.636-11.077-4.816-6.743-3.853-16.857 2.89-23.599l4.816-4.816c-9.632 0-19.746-4.335-24.563-8.669-17.819-15.895-17.819-55.387-.481-73.689z"/><path d="M304.383 468.144c6.743.482 9.632-3.853 9.632-15.893v-11.077l-6.261 6.261c-6.261 6.261-10.596 10.114-9.632 14.93.963 3.37 3.371 5.297 6.261 5.779zM507.144 473.441v4.816c0 1.926 1.445 3.371 3.371 3.371s3.371-1.445 3.371-3.371v-7.224c-.963-.482-1.927-.482-3.371-.482-1.926-.481-3.371.964-3.371 2.89zM362.177 473.441v4.816c0 1.926 1.445 3.371 3.371 3.371s3.371-1.445 3.371-3.371v-7.224c-.963-.482-1.926-.482-3.371-.482-1.926-.481-3.371.964-3.371 2.89zM302.938 425.28c2.89.963 6.743.482 8.188 0 2.408-.963 2.89-2.89 2.89-5.298v-35.64c0-2.408-.482-4.335-2.89-5.298-1.926-.963-5.779-1.445-8.188 0-2.89.963-4.816 4.335-4.816 9.151v27.934c.481 4.816 2.408 8.187 4.816 9.151z"/></g></svg>