<?xml version="1.0" encoding="utf-8"?>
<!-- Generator: Adobe Illustrator 17.0.0, SVG Export Plug-In . SVG Version: 6.00 Build 0)  -->
<!DOCTYPE svg PUBLIC "-//W3C//DTD SVG 1.1//EN" "http://www.w3.org/Graphics/SVG/1.1/DTD/svg11.dtd">
<svg version="1.1" id="Layer_1" xmlns="http://www.w3.org/2000/svg" xmlns:xlink="http://www.w3.org/1999/xlink" x="0px" y="0px"
	 width="595.28px" height="198.427px" viewBox="0 321.732 595.28 198.427" enable-background="new 0 321.732 595.28 198.427"
	 xml:space="preserve">
<g id="XMLID_1_">
	<path id="XMLID_2_" fill="#FFFFFF" d="M382.405,470.07c-1.926,0-3.371,1.445-3.371,3.371v0.482h6.261v-0.482
		C385.776,471.515,384.331,470.07,382.405,470.07z"/>
	<path id="XMLID_3_" fill="#FFFFFF" d="M411.784,385.787c0-3.853-1.926-6.261-3.853-7.224c-1.926-0.963-5.298-0.963-7.706,0
		c-2.408,0.963-3.853,2.89-3.853,7.224v8.669h15.412L411.784,385.787L411.784,385.787z"/>
	<path id="XMLID_4_" fill="#FFFFFF" d="M421.897,470.07c-1.926,0-2.89,1.445-2.89,2.89v1.445c0,1.926,0.963,2.89,2.89,2.89
		c1.926,0,2.408-1.445,2.408-2.89v-1.445C424.306,471.033,423.342,470.07,421.897,470.07z"/>
	<path id="XMLID_5_" fill="#FFFFFF" d="M536.523,470.07c-1.926,0-3.371,0.963-3.371,3.853v3.371c0,2.89,1.445,3.853,3.371,3.853
		s3.371-0.963,3.371-3.853v-3.371C539.894,471.515,538.449,470.07,536.523,470.07z"/>
	<path id="XMLID_6_" fill="#FFFFFF" d="M0,520.158h595.28V321.732H0V520.158z M372.291,478.258c0,3.853-3.371,6.743-6.743,6.743
		c-3.853,0-7.224-2.89-7.224-6.743v-4.816c0-4.335,2.89-6.743,7.224-6.743c1.445,0,2.408,0.482,3.371,0.482v-6.743h3.853v17.82
		H372.291z M389.147,477.294h-10.114v0.963c0,1.926,1.445,3.371,3.371,3.371c1.445,0,2.89-0.482,4.816-0.963l0.963,3.371
		c-1.926,0.482-3.853,0.963-5.779,0.963c-4.335,0-7.224-2.89-7.224-6.743v-4.816c0-3.853,3.371-6.743,7.224-6.743
		c3.853,0,6.743,2.89,6.743,6.743V477.294z M397.817,485c-1.926,0-3.853-0.482-5.779-0.963l0.963-3.371
		c1.926,0.482,3.371,0.963,4.816,0.963c1.926,0,2.89-0.963,2.89-1.926c0-1.445-0.963-1.926-1.926-1.926
		c-2.89-0.963-5.779-1.926-5.779-5.779c0-2.89,2.408-4.816,6.261-4.816c1.445,0,3.371,0.482,5.298,0.963l-1.926,2.89
		c-1.926-0.482-3.371-0.963-4.335-0.963c-1.926,0-2.408,0.963-2.408,1.445c0,0.963,0.482,1.445,1.926,1.926
		c2.89,0.963,6.261,1.926,6.261,6.261C404.078,482.111,402.151,485,397.817,485z M411.302,484.519h-3.853v-17.82h3.853V484.519z
		 M409.375,465.735c-1.445,0-2.408-0.963-2.408-2.408s0.963-2.408,2.408-2.408c1.445,0,2.408,0.963,2.408,2.408
		S410.82,465.735,409.375,465.735z M428.159,472.96v1.445c0,3.853-2.89,6.261-6.261,6.261c-0.482,0-0.963,0-1.445,0l-0.482,0.482
		c0,1.445,8.669-0.482,8.669,5.298c0,3.371-2.89,5.298-7.224,5.298c-2.408,0-5.298-0.963-7.224-1.926l0.963-2.89
		c1.926,0.963,4.335,1.445,5.779,1.445c3.371,0,3.371-1.445,3.371-1.926c0-1.926-8.669,0-8.669-4.816
		c0-0.963,0.482-1.445,0.963-1.926c-1.445-0.963-2.408-2.89-2.408-5.298v-1.445c0-3.853,2.89-6.261,6.261-6.261
		c1.445,0,2.89,0.482,3.853,0.963l1.445-1.445l2.89,2.408l-1.926,1.926C428.159,471.515,428.159,471.997,428.159,472.96z
		 M446.46,484.519h-3.853v-11.077c0-1.926-1.445-3.371-3.371-3.371c-1.926,0-3.371,1.445-3.371,3.371v11.077h-3.853v-11.077
		c0-3.853,3.371-6.743,7.224-6.743s7.224,2.89,7.224,6.743V484.519z M464.28,485c-1.926,0-3.853-0.482-5.779-0.963l0.963-3.371
		c1.926,0.482,3.371,0.963,4.816,0.963c1.926,0,2.89-0.963,2.89-1.926c0-1.445-0.963-1.926-1.926-1.926
		c-2.89-0.963-5.779-1.926-5.779-5.779c0-2.89,2.408-4.816,5.779-4.816c1.445,0,3.371,0.482,5.298,0.963l-0.963,2.89
		c-1.926-0.482-3.371-0.963-4.335-0.963c-1.926,0-2.408,0.963-2.408,1.445c0,0.963,0.482,1.445,1.926,1.926
		c2.89,0.963,6.261,1.926,6.261,6.261C470.541,482.111,468.615,485,464.28,485z M483.063,470.07h-3.371v14.449h-3.853V470.07h-2.408
		l-0.963-2.89h2.89v-4.335l3.853-0.963v5.298h3.371v2.89H483.063z M499.92,478.258c0,3.853-3.371,6.743-6.743,6.743
		c-3.853,0-7.224-2.89-7.224-6.743V467.18h3.853v11.077c0,1.926,1.445,3.371,3.371,3.371c1.926,0,3.371-1.445,3.371-3.371V467.18
		h3.853v11.077H499.92z M517.258,478.258c0,3.853-3.371,6.743-6.743,6.743c-3.853,0-7.224-2.89-7.224-6.743v-4.816
		c0-4.335,2.89-6.743,7.224-6.743c1.445,0,2.408,0.482,3.371,0.482v-6.743h3.853v17.82H517.258z M524.964,484.519h-3.853v-17.82
		h3.853V484.519z M523.037,465.735c-1.445,0-2.408-0.963-2.408-2.408s0.963-2.408,2.408-2.408c1.445,0,2.408,0.963,2.408,2.408
		C525.927,464.772,524.482,465.735,523.037,465.735z M543.747,477.776c0,4.335-3.371,7.224-7.224,7.224
		c-4.335,0-7.224-2.89-7.224-7.224v-3.371c0-4.335,2.89-7.224,7.224-7.224s7.224,2.89,7.224,7.224V477.776z M448.387,357.853h43.346
		v12.522c6.743-17.338,37.085-18.783,46.235-5.779c3.371,4.816,4.335,11.559,4.335,21.191v36.121c0,2.408,0.963,3.853,2.89,3.853
		c1.926,0,2.89-1.445,2.89-3.853v-10.114h8.669v9.632c0,9.632-2.89,17.338-8.188,21.673c-9.151,8.188-25.526,7.706-33.713,0
		c-5.298-4.816-7.706-11.559-7.706-21.191v-36.121c0-3.853-1.926-6.261-3.853-7.224c-1.926-0.963-5.298-0.963-7.706,0
		c-2.408,0.963-3.853,2.89-3.853,7.224v60.202h-35.158v-66.945h-7.706v-21.191H448.387z M404.078,354.963
		c28.415,0,42.864,18.783,42.864,47.199c0,0.963,0,1.926,0,2.89H395.89v13.004c0,4.335,1.445,6.261,3.853,7.224
		c2.408,0.963,5.779,0.963,7.706,0c1.926-0.963,3.853-3.371,3.853-7.224v-5.298h34.677c-3.371,22.154-17.82,36.121-42.382,36.121
		c-28.897,0-47.199-18.301-47.199-47.199C356.397,373.746,375.181,354.963,404.078,354.963z M270.188,366.522
		c14.449-15.412,34.677-13.004,43.827-1.445v-7.224h42.382v6.743h-0.482c-4.816,0-6.261,4.816-6.261,10.596v61.647v4.335
		c0,5.298-0.482,10.596-0.963,18.783c-1.926,20.228-17.338,29.86-38.529,28.415c-7.706-0.482-17.338-3.371-22.636-11.077
		c-4.816-6.743-3.853-16.857,2.89-23.599c1.445-1.445,3.371-3.371,4.816-4.816c-9.632,0-19.746-4.335-24.563-8.669
		C252.85,424.316,252.85,384.824,270.188,366.522z"/>
	<path id="XMLID_25_" fill="#FFFFFF" d="M304.383,468.144c6.743,0.482,9.632-3.853,9.632-15.893c0,0,0-6.743,0-11.077
		c-1.926,1.926-4.335,4.335-6.261,6.261c-6.261,6.261-10.596,10.114-9.632,14.93C299.085,465.735,301.493,467.662,304.383,468.144z"
		/>
	<path id="XMLID_26_" fill="#FFFFFF" d="M507.144,473.441v4.816c0,1.926,1.445,3.371,3.371,3.371s3.371-1.445,3.371-3.371v-7.224
		c-0.963-0.482-1.927-0.482-3.371-0.482C508.589,470.07,507.144,471.515,507.144,473.441z"/>
	<path id="XMLID_27_" fill="#FFFFFF" d="M362.177,473.441v4.816c0,1.926,1.445,3.371,3.371,3.371s3.371-1.445,3.371-3.371v-7.224
		c-0.963-0.482-1.926-0.482-3.371-0.482C363.622,470.07,362.177,471.515,362.177,473.441z"/>
	<path id="XMLID_28_" fill="#FFFFFF" d="M302.938,425.28c2.89,0.963,6.743,0.482,8.188,0c2.408-0.963,2.89-2.89,2.89-5.298v-17.82
		v-17.82c0-2.408-0.482-4.335-2.89-5.298c-1.926-0.963-5.779-1.445-8.188,0c-2.89,0.963-4.816,4.335-4.816,9.151v13.967v13.967
		C298.603,420.945,300.53,424.316,302.938,425.28z"/>
</g>
</svg>
